<?xml version="1.0" standalone="no"?>
<!DOCTYPE svg PUBLIC "-//W3C//DTD SVG 20010904//EN"
 "http://www.w3.org/TR/2001/REC-SVG-20010904/DTD/svg10.dtd">
<svg version="1.0" xmlns="http://www.w3.org/2000/svg"
 width="797.000000pt" height="313.000000pt" viewBox="0 0 797.000000 313.000000"
 preserveAspectRatio="xMidYMid meet">

<g transform="translate(0.000000,313.000000) scale(0.100000,-0.100000)"
fill="#000000" stroke="none">
<path d="M4150 2783 c0 -13 -16 -34 -40 -53 -22 -17 -40 -39 -40 -48 0 -13 4
-12 23 5 12 11 32 26 44 32 27 14 38 45 24 68 -9 16 -10 16 -11 -4z"/>
<path d="M4370 2702 c-19 -37 -34 -71 -32 -76 2 -5 -5 -17 -14 -27 -9 -10 -27
-41 -40 -69 -13 -27 -28 -50 -34 -50 -5 0 -52 7 -102 16 -104 18 -312 14 -383
-7 -54 -16 -28 -23 35 -10 95 21 331 13 456 -14 18 -4 26 4 44 43 12 26 28 54
36 63 8 9 16 25 18 36 3 11 17 45 33 74 40 75 45 89 30 89 -7 0 -28 -30 -47
-68z"/>
<path d="M3790 2754 c-1 -5 -5 -28 -9 -51 -4 -23 -5 -47 0 -54 4 -7 10 12 14
45 4 31 5 60 1 63 -3 4 -6 2 -6 -3z"/>
<path d="M3930 2705 c0 -8 5 -15 10 -15 6 0 10 7 10 15 0 8 -4 15 -10 15 -5 0
-10 -7 -10 -15z"/>
<path d="M4020 2705 c0 -8 5 -15 10 -15 6 0 10 7 10 15 0 8 -4 15 -10 15 -5 0
-10 -7 -10 -15z"/>
<path d="M4260 2659 c0 -5 5 -7 10 -4 6 3 10 8 10 11 0 2 -4 4 -10 4 -5 0 -10
-5 -10 -11z"/>
<path d="M4021 2651 c-10 -7 -10 -10 -1 -16 6 -4 16 -3 22 3 13 13 -4 23 -21
13z"/>
<path d="M3910 2634 l-25 -15 29 3 c16 2 31 9 34 16 5 15 -6 14 -38 -4z"/>
<path d="M3720 2616 c0 -9 5 -16 10 -16 6 0 10 4 10 9 0 6 -4 13 -10 16 -5 3
-10 -1 -10 -9z"/>
<path d="M4227 2619 c-9 -6 -26 -8 -36 -4 -11 3 -22 1 -26 -5 -5 -8 8 -10 41
-8 27 2 49 8 52 16 4 15 -7 15 -31 1z"/>
<path d="M3765 2610 c-4 -6 5 -10 19 -10 14 0 26 5 26 10 0 6 -9 10 -19 10
-11 0 -23 -4 -26 -10z"/>
<path d="M3979 2232 c-3 -100 -8 -185 -12 -188 -3 -3 -50 -10 -104 -14 l-98
-7 102 -2 c92 -1 103 1 113 19 7 12 9 86 8 197 l-3 178 -6 -183z"/>
<path d="M3784 2336 c-50 -22 -77 -64 -71 -110 7 -52 23 -66 19 -16 -5 51 15
83 68 106 39 17 53 34 28 34 -7 -1 -27 -7 -44 -14z"/>
<path d="M4130 2244 c0 -67 4 -103 10 -99 6 3 10 46 10 96 0 95 5 103 51 79
10 -6 19 -8 19 -5 0 7 -64 35 -80 35 -6 0 -10 -40 -10 -106z"/>
<path d="M4397 2269 c6 -54 -10 -117 -38 -153 -12 -15 -44 -39 -72 -53 -46
-24 -64 -27 -149 -28 -54 0 -98 -3 -98 -7 0 -12 144 -14 203 -2 64 12 120 51
151 104 21 36 26 134 8 166 -7 13 -9 6 -5 -27z"/>
</g>
</svg>
